<?xml version="1.0" encoding="UTF-8"?><svg xmlns="http://www.w3.org/2000/svg" viewBox="0 0 839.65 431.82"><defs><style>.g{fill:#1a2741;}</style></defs><g id="a"/><g id="b"><g id="c"><g id="d"><path class="g" d="M268.98,122.51c-.61,0-1.19-.28-1.57-.75-.7-.87-.57-2.14,.3-2.84l53.81-43.56c1.48-1.2,3.6-1.2,5.09,0l29.03,23.5c84.29,68.23-8.64,68.23-47.41,68.23h-121.96c-7.48,0-14.53-2.5-20.35-7.2l-11.63-9.42c-.47-.38-.75-.96-.75-1.57,0-1.12,.91-2.02,2.02-2.02h125.68c7.77,0,14.58-4.04,14.73-11.78,.16-8-6.56-12.57-14.56-12.57h-12.43Z"/></g><g id="e"><path class="g" d="M570.67,122.51c1.12,0,2.02-.91,2.02-2.02,0-.61-.28-1.19-.75-1.57l-53.81-43.56c-1.48-1.2-3.6-1.2-5.09,0l-29.03,23.5c-84.29,68.23,8.64,68.23,47.41,68.23h121.96c7.48,0,14.53-2.5,20.35-7.2l11.63-9.42c.87-.7,1-1.98,.3-2.84-.38-.47-.96-.75-1.57-.75h-125.68c-7.77,0-14.58-4.04-14.73-11.78-.16-8,6.56-12.57,14.56-12.57h12.43Z"/></g><g id="f"><path class="g" d="M408.43,89.15c8.24,6.67,14.54,6.67,22.78,0,13.47-10.9,26.93-21.8,40.39-32.69,7.8-6.31,7.8-12.45,0-18.76-13.46-10.9-26.92-21.8-40.39-32.69-8.24-6.67-14.54-6.67-22.78,0-13.46,10.9-26.93,21.8-40.39,32.69-7.8,6.31-7.8,12.45,0,18.76,13.46,10.9,26.93,21.8,40.39,32.69Z"/></g><g><path class="g" d="M0,214.06H28.66v82.44h49.31v17.42H0v-99.85Z"/><path class="g" d="M116.62,214.06h28.66v99.85h-28.66v-99.85Z"/><path class="g" d="M194.27,214.06h33.59l46.08,57.17v-57.17h20.8v99.85h-25.28l-54.55-67.65v67.65h-20.65v-99.85Z"/><path class="g" d="M329.06,297.12l11.41-14.02c9.86,8.32,25.12,16.95,47.31,16.95,15.87,0,27.12-2.62,27.12-12.64s-13.72-9.86-29.13-10.48c-20.34-.77-52.39-6.62-52.39-31.59,0-26.51,26.81-34.82,49.15-34.82,24.2,0,39.61,5.55,52.4,13.56l-9.86,14.18c-12.79-6.78-27.12-11.25-42.38-11.25-9.4,0-22.35,.77-22.35,10.48,0,8.94,17.42,8.78,34.98,10.17,19.26,1.69,46.85,6.47,46.85,31.28,0,29.28-31.28,37.75-53.47,37.75-27.59,0-46.85-9.86-59.64-19.57Z"/><path class="g" d="M464.32,297.12l11.41-14.02c9.86,8.32,25.12,16.95,47.31,16.95,15.87,0,27.12-2.62,27.12-12.64s-13.72-9.86-29.13-10.48c-20.34-.77-52.39-6.62-52.39-31.59,0-26.51,26.81-34.82,49.15-34.82,24.2,0,39.61,5.55,52.4,13.56l-9.86,14.18c-12.79-6.78-27.12-11.25-42.38-11.25-9.4,0-22.35,.77-22.35,10.48,0,8.94,17.42,8.78,34.98,10.17,19.26,1.69,46.85,6.47,46.85,31.28,0,29.28-31.28,37.75-53.47,37.75-27.59,0-46.85-9.86-59.64-19.57Z"/><path class="g" d="M614.08,214.06h83.36v17.25h-54.7v21.58h37.6v16.95h-37.6v26.66h58.4v17.42h-87.07v-99.85Z"/><path class="g" d="M739.17,214.06h33.59l46.08,57.17v-57.17h20.8v99.85h-25.28l-54.55-67.65v67.65h-20.65v-99.85Z"/></g><g><path class="g" d="M271.84,413.88l-19.28-26.88h15.28l12.81,19.08,12.27-19.08h11.14l-19.81,26.88v16.34h-12.41v-16.34Z"/><path class="g" d="M325.54,386.99h11.81l20.08,43.23h-14.54l-4.27-9.07h-19.75l-3.87,9.07h-9.54l20.08-43.23Zm-4,27.69h14.01l-7.27-15.68-6.74,15.68Z"/><path class="g" d="M364.69,408.54c0-13.68,12.34-23.22,27.82-23.22,12.07,0,17.68,4.47,22.68,9.01l-6,5.47c-3.67-3.67-8.14-7.34-15.74-7.34-7.2,0-13.68,6.2-13.68,16.08s6.4,16.14,13.61,16.14c7.67,0,12.07-3.67,15.74-7.34l6,5.4c-5,4.6-10.54,9.07-22.62,9.07-15.54,0-27.82-9.61-27.82-23.28Z"/><path class="g" d="M430.53,386.99h12.41v16.41h18.68v-16.41h12.41v43.23h-12.41v-19.75h-18.68v19.75h-12.41v-43.23Z"/><path class="g" d="M503.03,394.47h-14.21v-7.47h41.03v7.47h-14.54v35.76h-12.27v-35.76Z"/><path class="g" d="M538.11,422.95l4.94-6.07c4.27,3.6,10.87,7.34,20.48,7.34,6.87,0,11.74-1.14,11.74-5.47s-5.94-4.27-12.61-4.54c-8.81-.33-22.68-2.87-22.68-13.68,0-11.47,11.61-15.08,21.28-15.08,10.47,0,17.14,2.4,22.68,5.87l-4.27,6.14c-5.54-2.94-11.74-4.87-18.35-4.87-4.07,0-9.67,.33-9.67,4.54,0,3.87,7.54,3.8,15.14,4.4,8.34,.73,20.28,2.8,20.28,13.54,0,12.68-13.54,16.34-23.15,16.34-11.94,0-20.28-4.27-25.82-8.47Z"/></g></g></g></svg>